<svg xmlns="http://www.w3.org/2000/svg" shape-rendering="geometricPrecision" text-rendering="geometricPrecision" image-rendering="optimizeQuality" fill-rule="evenodd" clip-rule="evenodd" viewBox="0 0 449 512.52"><path fill="#1A1A1A" d="M341.96 70.82h38.22c7.51 0 14.35 3.08 19.32 8.02 4.94 4.93 8.01 11.81 8.97 19.32v126.83l-.39-.12-.77-.26-.38-.12-.38-.13-.39-.13-.38-.13-1.54-.52-.39-.13-.38-.13-.39-.14-.37-.13-1.54-.54-.38-.14-.39-.13-.37-.14-.39-.14-.26-.09-.12-.04-.38-.14-.39-.14-.38-.14-.38-.14-.38-.14-.38-.15-.76-.28-.39-.14-.37-.15-.39-.14-.38-.14-.38-.15-.37-.14h-.02l-.36-.15-.39-.15-.38-.14-.37-.15-.38-.15-.38-.15-.76-.29-.38-.15-.38-.15-.37-.15-.38-.15-.38-.16-.51-.2-.24-.1-.38-.15-.38-.16-.37-.15-.38-.15-.38-.16-.37-.15-.21-.08-.17-.08-.38-.16-.37-.15-.38-.16-.37-.15V98.16c0-1.06-.42-2.07-1.19-2.74-.71-.73-1.69-1.19-2.74-1.19h-38.22v100.89l-.31-.17-.07-.04-.37-.22-.38-.21-.37-.21-.38-.22-.38-.21-.37-.21-.15-.08-.23-.14-.38-.21-.37-.22-.38-.21-.37-.22-.38-.22-.34-.2-.03-.01-.37-.22-.38-.22-.37-.21-.37-.22-.37-.22-.37-.21-.18-.1-.19-.12-.37-.21-.37-.22-.37-.22-.37-.22-.37-.22-.36-.21-.02-.01-.36-.21-.36-.22-.37-.22-.37-.22-.36-.22-.37-.22-.21-.12-.15-.09-.37-.23-.36-.21-.36-.23-.37-.21-.36-.22-.37-.23-.05-.03-.31-.18-.36-.22-.36-.23-.36-.21-.36-.23-.36-.22-.25-.15-.11-.06-.36-.23-.36-.22-.36-.22-.36-.22-.36-.23-.35-.21-.09-.06-.27-.17-.36-.22-.35-.22-.36-.22-.35-.22-.36-.23-.28-.18-.07-.04-.36-.22-.35-.22-.35-.23-.35-.22V27.33c0-2.12-1.82-3.92-3.93-3.92H27.34c-2.13 0-3.93 1.81-3.93 3.92v324.55c0 2.11 1.82 3.92 3.93 3.92h128.98c1.61 8.04 3.42 15.82 5.42 23.37H88.92v43.53c0 1.06.42 2.06 1.18 2.74.72.72 1.69 1.18 2.74 1.18h85.38c3.6 8.17 7.5 15.97 11.7 23.41H92.84c-7.51 0-14.34-3.08-19.32-8.01-4.93-4.94-8.01-11.77-8.01-19.32v-43.49H27.34C12.29 379.21 0 366.92 0 351.88V27.33C0 12.27 12.27 0 27.34 0h287.29c15.05 0 27.33 12.28 27.33 27.33v43.49zM86.56 297.75c-6.3 0-11.4-5.11-11.4-11.4s5.1-11.4 11.4-11.4h60.8l.02.36.01.37.24 5.78.02.36.01.36.02.36.01.28.01.08.01.36.02.36.02.35.02.36.27 4.99.02.35.03.35.01.36.02.3.01.05.02.36.02.35.02.35.03.36.02.34.32 4.56.02.35.02.35H86.56zm.1-195.58c-6.29 0-11.4-5.11-11.4-11.4s5.11-11.4 11.4-11.4h168.63c6.29 0 11.39 5.11 11.39 11.4s-5.1 11.4-11.39 11.4H86.66zm-.1 63.07c-6.3 0-11.4-5.11-11.4-11.4s5.1-11.4 11.4-11.4h168.62c6.3 0 11.4 5.11 11.4 11.4s-5.1 11.4-11.4 11.4H86.56zm0 66.26c-6.3 0-11.4-5.11-11.4-11.4s5.1-11.4 11.4-11.4h168.62c3.61 0 6.82 1.68 8.92 4.29l-1.04.46-.31.14-.73.32-1.05.44-2.08.88-1.04.43-1.05.42-1.04.42-.34.13-1.75.69-1.04.4-.46.18-.59.22-1.04.39-2.09.76-1.05.37-1.04.37-1.05.37-2.1.71-1.04.34-.63.21-.42.13-1.05.34-1.05.33-.14.05-.91.27-1.04.32-2.11.63-1.04.3-1.05.3-1.05.29-.8.23-.26.06-1.05.28-2.1.56-1.05.26-1.05.26-1.06.26-1.05.26-.39.09-.67.15-1.05.24-.96.22-.1.02-1.05.24-1.05.23-.48.1-.58.12-1.05.21-2.12.43-1.05.2-.57.11-.49.09-1.06.19-1.05.19-.08.01-.98.17-1.06.18-.64.11-.42.07-1.05.17-1.06.16-.16.03-.9.14-1.06.15-.73.1-.33.05-1.06.15-1.06.14-.24.04-.82.1-1.06.13H86.56z"/><path fill="#DE4C3C" d="M448.41 267.32c6.61 133.46-42.69 212.32-130.06 245.2-84.37-30.81-134.24-106.22-130.55-247.23 44.36 2.31 87.9-7.26 130.07-40.02 37.43 23.74 85.13 46.19 130.54 42.05zm-130.47-19.17c40.97 25.94 77.97 38.26 109.73 35.34 5.54 112.18-35.88 178.44-109.3 206.12-70.91-25.87-112.84-89.28-109.76-207.82 37.35 1.96 73.92-6.08 109.33-33.64z"/><path fill="#BD2615" d="M306.94 310.83h22.74c4.25 0 7.71 3.49 7.71 7.72v28.64h28.65c4.25 0 7.71 3.48 7.71 7.72v22.72c0 4.25-3.48 7.73-7.71 7.73h-28.65v27.98c0 4.25-3.48 7.72-7.71 7.72h-22.74c-4.25 0-7.72-3.48-7.72-7.72v-27.98h-28.64c-4.25 0-7.72-3.48-7.72-7.73v-22.74c0-4.25 3.49-7.71 7.72-7.71h28.64v-28.63c0-4.25 3.47-7.72 7.72-7.72z"/></svg>